Coordinates
version=1
nRows=32
nColumns=12
inDegrees=yes

Units are S.I. units (second, meters, Newtons, ...)
Angles are in degrees

endheader
time	SC_y	SC_z	SC_x	AC_y	AC_z	AC_x	GH_y	GH_z	GH_yy	EL_x	PS_y
       0.0              -20.61          14.38          72.32           58.5         -11.86         -19.19          117.8          31.01         -90.61           81.5          19.65
   0.03985              -20.61          14.39          72.31          58.49         -11.86         -19.19          117.7          31.02          -90.6          81.49          19.67
   0.07969              -20.62          14.39           72.3          58.49         -11.86         -19.19          117.7          31.02          -90.6          81.48          19.68
    0.1195              -20.62          14.39           72.3          58.48         -11.86         -19.19          117.7          31.03          -90.6          81.47          19.69
    0.1594              -20.62          14.39          72.29          58.48         -11.86         -19.19          117.7          31.04         -90.59          81.46          19.71
    0.1992              -20.63           14.4          72.28          58.47         -11.86         -19.19          117.7          31.04         -90.59          81.44          19.73
    0.2391              -20.63           14.4          72.27          58.47         -11.86         -19.18          117.6          31.05         -90.58          81.43          19.74
    0.2789              -20.64           14.4          72.26          58.46         -11.86         -19.18          117.6          31.06         -90.58          81.42          19.76
    0.3188              -20.64          14.41          72.25          58.46         -11.86         -19.18          117.6          31.06         -90.57           81.4          19.78
    0.3586              -20.65          14.41          72.24          58.45         -11.86         -19.18          117.6          31.07         -90.57          81.39           19.8
    0.3985              -20.65          14.41          72.22          58.45         -11.86         -19.18          117.5          31.08         -90.56          81.37          19.83
    0.4383              -20.66          14.42          72.21          58.44         -11.86         -19.17          117.5          31.09         -90.56          81.36          19.85
    0.4782              -20.66          14.42          72.19          58.43         -11.86         -19.17          117.5           31.1         -90.55          81.34          19.88
     0.518              -20.67          14.43          72.18          58.42         -11.86         -19.17          117.4          31.11         -90.54          81.32          19.91
    0.5578              -20.68          14.43          72.16          58.41         -11.86         -19.17          117.4          31.13         -90.54          81.29          19.94
    0.5977              -20.69          14.44          72.14          58.41         -11.86         -19.16          117.3          31.14         -90.53          81.27          19.97
    0.6375              -20.69          14.45          72.12          58.39         -11.86         -19.16          117.3          31.15         -90.52          81.24          20.01
    0.6774               -20.7          14.45           72.1          58.38         -11.86         -19.15          117.2          31.17         -90.51          81.21          20.05
    0.7172              -20.71          14.46          72.08          58.37         -11.86         -19.15          117.2          31.19          -90.5          81.18          20.09
    0.7571              -20.73          14.47          72.05          58.36         -11.85         -19.15          117.1           31.2         -90.49          81.15          20.14
    0.7969              -20.74          14.48          72.02          58.34         -11.85         -19.14          117.0          31.23         -90.47          81.11           20.2
    0.8368              -20.75          14.49          71.99          58.33         -11.85         -19.13          117.0          31.25         -90.46          81.07          20.25
    0.8766              -20.77           14.5          71.95          58.31         -11.85         -19.13          116.9          31.27         -90.44          81.02          20.32
    0.9165              -20.78          14.51          71.91          58.29         -11.85         -19.12          116.8           31.3         -90.43          80.97          20.39
    0.9563               -20.8          14.53          71.87          58.27         -11.85         -19.11          116.7          31.33         -90.41          80.92          20.47
    0.9962              -20.82          14.54          71.82          58.24         -11.85         -19.11          116.6          31.37         -90.39          80.86          20.56
     1.036              -20.84          14.56          71.77          58.21         -11.85          -19.1          116.4          31.41         -90.36          80.79          20.66
     1.076              -20.87          14.58          71.71          58.18         -11.85         -19.09          116.3          31.45         -90.33          80.71          20.77
     1.116               -20.9           14.6          71.64          58.15         -11.85         -19.07          116.1           31.5          -90.3          80.62          20.89
     1.156              -20.93          14.63          71.56          58.11         -11.85         -19.06          116.0          31.55         -90.27          80.52          21.04
     1.195              -20.97          14.65          71.47          58.06         -11.85         -19.04          115.7          31.62         -90.23           80.4           21.2
     1.235              -21.01          14.69          71.37          58.01         -11.85         -19.03          115.5          31.69         -90.18          80.27          21.39
